<svg xmlns="http://www.w3.org/2000/svg" width="252.754" height="60" viewBox="0 0 252.754 60">
  <g id="Group_207" data-name="Group 207" transform="translate(-3930.246 -6149)">
    <g id="Group_206" data-name="Group 206">
      <path id="Fill_1" data-name="Fill 1" d="M249.179,3444.875l-4.238-2.707a1.063,1.063,0,0,0-1.414.245c-.02.025-.038.051-.055.079a1.064,1.064,0,0,0,.324,1.469l4.238,2.707a1.064,1.064,0,0,0,1.145-1.794" transform="translate(3727.503 2720.191)" fill="#fff"/>
      <path id="Fill_3" data-name="Fill 3" d="M224.853,3412.2a1.064,1.064,0,0,0,2.078-.458l-1.083-4.911a1.064,1.064,0,1,0-2.078.458Z" transform="translate(3739.895 2743.001)" fill="#fff"/>
      <path id="Fill_5" data-name="Fill 5" d="M246.04,3419.352a1.064,1.064,0,0,0-1.288-1.695l-4.34,3.3a1.064,1.064,0,1,0,1.288,1.694Z" transform="translate(3729.601 2735.752)" fill="#fff"/>
      <path id="Fill_7" data-name="Fill 7" d="M9.617,19.233A6.852,6.852,0,0,1,2.866,13.5,4.108,4.108,0,0,1,.811,12.052,4.059,4.059,0,0,1,1.1,6.843a4.06,4.06,0,0,1,.291-5.83A4.318,4.318,0,0,1,4.16,0L15.165,0a4.61,4.61,0,0,1,2.681,1.013,4.059,4.059,0,0,1,.291,5.83,4.059,4.059,0,0,1,.285,5.209A4.108,4.108,0,0,1,16.368,13.5a6.853,6.853,0,0,1-6.751,5.73ZM5.565,13.686a4.254,4.254,0,0,0,8.1,0Zm-1.5-5.548a1.479,1.479,0,1,0,0,2.958h11.1a1.479,1.479,0,0,0,0-2.958Zm0-5.548a1.479,1.479,0,1,0,0,2.958h11.1a1.479,1.479,0,0,0,0-2.958Z" transform="translate(3940.473 6189.767)" fill="#fff"/>
      <path id="Fill_9" data-name="Fill 9" d="M152.66,3418.683a19.845,19.845,0,0,0-10.537,36.79,5.9,5.9,0,0,1,.909-1.01l.03-.026a6.128,6.128,0,0,1,1.145-.753,17.259,17.259,0,1,1,16.477,0,6.235,6.235,0,0,1,1.172.766,5.965,5.965,0,0,1,.92,1.021,19.845,19.845,0,0,0-10.116-36.791" transform="translate(3797.64 2734.965)" fill="#fff"/>
      <path id="Fill_11" data-name="Fill 11" d="M179.008,3457.136a1.9,1.9,0,0,0-.4,1.389,1.584,1.584,0,0,0,.335.82,3.131,3.131,0,0,0,1.476.8c.162.054.326.1.49.151v-3.961a2.571,2.571,0,0,0-1.9.8" transform="translate(3768.5 2711.106)" fill="#fff"/>
      <path id="Fill_13" data-name="Fill 13" d="M162.488,3457.35c0,.144.008.32.021.516a3.374,3.374,0,0,0,4.628,2.919,14.8,14.8,0,1,0-10.948.016,3.365,3.365,0,0,0,4.584-2.933c.012-.192.018-.364.021-.507v-.856a7.787,7.787,0,0,1-4.121-1.766,5.413,5.413,0,0,1-1.492-2.084,1.7,1.7,0,0,1,2.622-2.03c.478.4.65,1.15,1.114,1.611a4.047,4.047,0,0,0,1.877,1.06v-4.723h0a9.5,9.5,0,0,1-4.005-1.708,4.39,4.39,0,0,1-1.553-3.395c0-2.882,2.494-4.9,5.18-5.229.126-.016.253-.027.38-.037v-1.938a.861.861,0,0,1,.67-.852.849.849,0,0,1,1.025.83v1.991a9.143,9.143,0,0,1,1.636.334,5.382,5.382,0,0,1,2.763,1.817,2.023,2.023,0,0,1,.356,2.05,1.6,1.6,0,0,1-1.566.965c-1.07-.078-1.423-1.183-2.165-1.771a2.524,2.524,0,0,0-1.024-.455v4.306a15.475,15.475,0,0,1,3.313,1.125,4.735,4.735,0,0,1,1.864,1.714,5.016,5.016,0,0,1,.673,2.686,5.576,5.576,0,0,1-4.3,5.3,8.45,8.45,0,0,1-1.548.248v.374l-.185-.011.185.012v.421Z" transform="translate(3788.617 2726.367)" fill="#fff"/>
      <path id="Fill_15" data-name="Fill 15" d="M191.978,3480a1.538,1.538,0,0,0-.35-1.018,2.808,2.808,0,0,0-1.226-.73c-.182-.063-.475-.149-.869-.257v4.3c1.237-.237,2.445-1,2.445-2.3" transform="translate(3761.571 2697.385)" fill="#fff"/>
    </g>
    <g id="Group_205" data-name="Group 205" transform="translate(116 -120.016)">
      <path id="Fill_17" data-name="Fill 17" d="M64.229,3581.313h5.3l5.341,13.487c.616,1.615,1.384,4,1.384,4h.076s.731-2.382,1.345-4l5.342-13.487h5.3l2.19,27.284H85.595l-1.153-15.256c-.115-1.806-.039-4.228-.039-4.228h-.076s-.807,2.652-1.46,4.228l-4.419,10.568H74.1l-4.38-10.568c-.654-1.576-1.5-4.265-1.5-4.265h-.076s.076,2.459-.039,4.265L66.957,3608.6H62Z" transform="translate(3815 2699.895)" fill="#fff"/>
      <path id="Fill_20" data-name="Fill 20" d="M10.8,20.52a11.153,11.153,0,0,1-7.648-2.868A9.952,9.952,0,0,1,0,10.26,9.963,9.963,0,0,1,3.146,2.882,11.076,11.076,0,0,1,10.76,0a11.137,11.137,0,0,1,7.647,2.882,9.951,9.951,0,0,1,3.151,7.378,9.966,9.966,0,0,1-3.146,7.393A11.089,11.089,0,0,1,10.8,20.52Zm0-16.37a5.849,5.849,0,0,0-5.842,6.11,5.829,5.829,0,1,0,11.644,0A5.831,5.831,0,0,0,10.8,4.15Z" transform="translate(3909.359 6288.434)" fill="#fff"/>
      <path id="Fill_22" data-name="Fill 22" d="M135.129,3591.5h5.149l4.074,12.144c.384,1.153.652,2.958.691,2.958h.077c.038,0,.307-1.805.692-2.958l4.074-12.144h5.149L148,3611.1h-5.764Z" transform="translate(3797.02 2697.39)" fill="#fff"/>
      <path id="Fill_24" data-name="Fill 24" d="M4.88,27.284H0V7.685H4.879v19.6ZM4.842,4.343H0V0H4.842V4.343Z" transform="translate(3954.78 6281.207)" fill="#fff"/>
      <path id="Fill_26" data-name="Fill 26" d="M178.394,3581.313h4.842v20.443c0,2.153.73,2.69,2,2.69.384,0,.729-.038.729-.038v4.265a11.072,11.072,0,0,1-1.538.116c-2.689,0-6.033-.692-6.033-6.3Z" transform="translate(3786.382 2699.895)" fill="#fff"/>
      <path id="Fill_27" data-name="Fill 27" d="M8.116,27.937H0V.461H7.462l0,.878A7.877,7.877,0,0,1,11.99,0c5.332,0,8.915,4.169,8.915,10.375,0,6.087-3.793,10.338-9.223,10.338a7.666,7.666,0,0,1-3.567-.855v8.079ZM10.337,5.61c-1.79,0-3.881,1.278-3.881,4.88,0,2.276,1.215,4.726,3.881,4.726,1.869,0,3.881-1.479,3.881-4.726C14.218,7.571,12.659,5.61,10.337,5.61Z" transform="translate(3975.728 6288.241)" fill="#fff"/>
      <path id="Fill_28" data-name="Fill 28" d="M231.67,3600.348v-19.291h-6.648v20.175c0,6.649,3.767,7.494,7.3,7.494a18.085,18.085,0,0,0,2-.115v-5.765s-.384.039-.807.039c-1.5,0-1.845-.653-1.845-2.537" transform="translate(3774.917 2699.958)" fill="#fff"/>
      <path id="Fill_29" data-name="Fill 29" d="M6.725,20.713a7.019,7.019,0,0,1-4.746-1.72A6.1,6.1,0,0,1,0,14.333c0-2.481,1.545-4.288,4.592-5.37a22.218,22.218,0,0,1,6.9-1.047h.268V7.571c0-1.454-.983-2.191-2.921-2.191A11.786,11.786,0,0,0,3.5,7.263L1.192,2.575l0,0A13.022,13.022,0,0,1,3.512,1.287,15.066,15.066,0,0,1,9.492,0a9.565,9.565,0,0,1,6.547,2.147A7.719,7.719,0,0,1,18.408,8.07V20.251H12.335V19.06a10.471,10.471,0,0,1,.077-1.229h-.077a5.139,5.139,0,0,1-1.249,1.441A6.742,6.742,0,0,1,6.725,20.713Zm4.5-8.992a8.281,8.281,0,0,0-3.06.514c-.965.4-1.475,1.006-1.475,1.752,0,1.035.7,1.654,1.883,1.654a3.677,3.677,0,0,0,3.266-3.5V11.72Z" transform="translate(4011.123 6288.241)" fill="#fff"/>
      <path id="Fill_30" data-name="Fill 30" d="M277.524,3601.113v-6.072h4.15v-5.188h-4.15v-5.686h-6.456v5.686h-2.729v5.188h2.536V3602c0,6.649,6.109,7.494,9.261,7.494a12.772,12.772,0,0,0,1.807-.115v-5.765a8.736,8.736,0,0,1-.885.039c-1.268,0-3.535-.307-3.535-2.537" transform="translate(3764.266 2699.194)" fill="#fff"/>
      <path id="Fill_31" data-name="Fill 31" d="M6.725,20.713a7.02,7.02,0,0,1-4.746-1.72A6.1,6.1,0,0,1,0,14.333c0-2.481,1.545-4.288,4.592-5.37a22.219,22.219,0,0,1,6.9-1.047h.268V7.571c0-1.454-.982-2.191-2.92-2.191A11.787,11.787,0,0,0,3.5,7.263l-2.3-4.689,0,0A13.017,13.017,0,0,1,3.512,1.287,15.063,15.063,0,0,1,9.492,0,9.566,9.566,0,0,1,16.04,2.147,7.719,7.719,0,0,1,18.408,8.07V20.251H12.335V19.06a10.557,10.557,0,0,1,.077-1.229h-.077a5.139,5.139,0,0,1-1.249,1.441A6.743,6.743,0,0,1,6.725,20.713Zm4.5-8.992a8.283,8.283,0,0,0-3.061.514c-.965.4-1.475,1.005-1.475,1.752,0,1.035.7,1.654,1.882,1.654a3.677,3.677,0,0,0,3.267-3.5V11.72Z" transform="translate(4048.592 6288.241)" fill="#fff"/>
    </g>
  </g>
</svg>
